<svg width="19" height="19" viewBox="0 0 19 19" fill="none" xmlns="http://www.w3.org/2000/svg">
<g clip-path="url(#clip0_126_1400)">
<path d="M6.23768 9.22121C7.87229 9.22121 9.1974 7.89609 9.1974 6.26148C9.1974 4.62687 7.87229 3.30176 6.23768 3.30176C4.60307 3.30176 3.27795 4.62687 3.27795 6.26148C3.27795 7.89609 4.60307 9.22121 6.23768 9.22121Z" fill="#8BBDFF"/>
<path d="M6.23772 10.1265C2.26007 10.1265 0.712524 12.8387 0.712524 14.1003C0.712524 15.3619 4.00617 15.6977 6.23772 15.6977C8.46927 15.6977 11.7629 15.3619 11.7629 14.1003C11.7629 12.8387 10.2158 10.1265 6.23772 10.1265Z" fill="#8BBDFF"/>
<path d="M12.7623 9.22121C14.3969 9.22121 15.7221 7.89609 15.7221 6.26148C15.7221 4.62687 14.3969 3.30176 12.7623 3.30176C11.1277 3.30176 9.80261 4.62687 9.80261 6.26148C9.80261 7.89609 11.1277 9.22121 12.7623 9.22121Z" fill="#3180F3"/>
<path d="M12.7624 10.1265C8.78473 10.1265 7.23718 12.8387 7.23718 14.1003C7.23718 15.3619 10.5308 15.6977 12.7624 15.6977C14.9939 15.6977 18.2876 15.3619 18.2876 14.1003C18.2876 12.8387 16.7405 10.1265 12.7624 10.1265Z" fill="#3180F3"/>
</g>
<defs>
<clipPath id="clip0_126_1400">
<rect width="19" height="19" fill="white"/>
</clipPath>
</defs>
</svg>
