<svg width="19" height="19" viewBox="0 0 19 19" fill="none" xmlns="http://www.w3.org/2000/svg">
<g clip-path="url(#clip0_126_1379)">
<path d="M13.0705 2.09619H5.27722C3.25173 2.09619 1.60974 3.73818 1.60974 5.76367V13.557C1.60974 15.5825 3.25173 17.2245 5.27722 17.2245H13.0705C15.096 17.2245 16.738 15.5825 16.738 13.557V5.76367C16.738 3.73818 15.096 2.09619 13.0705 2.09619Z" fill="#9CC7F9"/>
<path d="M14.2552 7.83503C16.1907 7.83503 17.7597 6.26599 17.7597 4.33048C17.7597 2.39497 16.1907 0.825928 14.2552 0.825928C12.3197 0.825928 10.7506 2.39497 10.7506 4.33048C10.7506 6.26599 12.3197 7.83503 14.2552 7.83503Z" fill="#CF3D40"/>
</g>
<defs>
<clipPath id="clip0_126_1379">
<rect width="19" height="19" fill="white"/>
</clipPath>
</defs>
</svg>
