<svg width="19" height="19" viewBox="0 0 19 19" fill="none" xmlns="http://www.w3.org/2000/svg">
<g clip-path="url(#clip0_126_1385)">
<path d="M15.7182 2.27954H3.2818C2.51847 2.27954 1.90002 2.89799 1.90002 3.66132V15.637C1.90002 16.4003 2.51847 17.0188 3.2818 17.0188H13.415L17.1 13.3337V3.66132C17.1 2.89799 16.4816 2.27954 15.7182 2.27954Z" fill="#E5E9EE"/>
<path d="M3.2818 2.27954H15.7182C16.4811 2.27954 17.1 2.89894 17.1 3.66132V5.88717H1.90002V3.66132C1.90002 2.89847 2.51942 2.27954 3.2818 2.27954Z" fill="#FDAEB3"/>
<path d="M4.89394 3.43097C4.57616 3.43097 4.31824 3.17352 4.31824 2.85527V1.70387C4.31824 1.38562 4.57569 1.12817 4.89394 1.12817C5.21219 1.12817 5.46964 1.38562 5.46964 1.70387V2.85527C5.46964 3.17352 5.21219 3.43097 4.89394 3.43097Z" fill="#4B596A"/>
<path d="M14.1061 3.43097C13.7883 3.43097 13.5304 3.17352 13.5304 2.85527V1.70387C13.5304 1.38562 13.7878 1.12817 14.1061 1.12817C14.4243 1.12817 14.6818 1.38562 14.6818 1.70387V2.85527C14.6818 3.17352 14.4243 3.43097 14.1061 3.43097Z" fill="#4B596A"/>
<path fill-rule="evenodd" clip-rule="evenodd" d="M14.3364 13.3342H17.1L13.4149 17.0193V14.2557C13.4149 13.747 13.8272 13.3347 14.3359 13.3347L14.3364 13.3342Z" fill="#C0C7D1"/>
</g>
<defs>
<clipPath id="clip0_126_1385">
<rect width="19" height="19" fill="white"/>
</clipPath>
</defs>
</svg>
