<svg width="12" height="12" viewBox="0 0 12 12" fill="none" xmlns="http://www.w3.org/2000/svg">
<g clip-path="url(#clip0_116_1371)">
<path d="M5.738 7.5C5.60539 7.5 5.47821 7.55268 5.38445 7.64645C5.29068 7.74021 5.238 7.86739 5.238 8V9.5C5.238 9.89782 5.07996 10.2794 4.79866 10.5607C4.51736 10.842 4.13582 11 3.738 11H2.5C2.10218 11 1.72064 10.842 1.43934 10.5607C1.15804 10.2794 1 9.89782 1 9.5V2.5C1 2.10218 1.15804 1.72064 1.43934 1.43934C1.72064 1.15804 2.10218 1 2.5 1H3.738C4.13582 1 4.51736 1.15804 4.79866 1.43934C5.07996 1.72064 5.238 2.10218 5.238 2.5V4C5.238 4.13261 5.29068 4.25979 5.38445 4.35355C5.47821 4.44732 5.60539 4.5 5.738 4.5C5.87061 4.5 5.99779 4.44732 6.09155 4.35355C6.18532 4.25979 6.238 4.13261 6.238 4V2.5C6.23721 1.8372 5.97356 1.20178 5.50489 0.73311C5.03622 0.264441 4.4008 0.000793929 3.738 0H2.5C1.8372 0.000793929 1.20178 0.264441 0.73311 0.73311C0.264441 1.20178 0.000793929 1.8372 0 2.5L0 9.5C0.000793929 10.1628 0.264441 10.7982 0.73311 11.2669C1.20178 11.7356 1.8372 11.9992 2.5 12H3.738C4.4008 11.9992 5.03622 11.7356 5.50489 11.2669C5.97356 10.7982 6.23721 10.1628 6.238 9.5V8C6.238 7.86739 6.18532 7.74021 6.09155 7.64645C5.99779 7.55268 5.87061 7.5 5.738 7.5Z" fill="#111111"/>
<path d="M11.4336 4.93954L9.14062 2.64654C9.0945 2.59879 9.03933 2.56069 8.97832 2.53449C8.91732 2.50829 8.85171 2.49449 8.78532 2.49392C8.71893 2.49334 8.65309 2.50599 8.59165 2.53113C8.5302 2.55627 8.47437 2.5934 8.42742 2.64034C8.38048 2.68729 8.34335 2.74312 8.31821 2.80456C8.29307 2.86601 8.28042 2.93185 8.281 2.99824C8.28157 3.06463 8.29537 3.13024 8.32157 3.19124C8.34778 3.25224 8.38587 3.30742 8.43362 3.35354L10.5646 5.48504L3.00012 5.50004C2.86751 5.50004 2.74034 5.55272 2.64657 5.64649C2.5528 5.74026 2.50012 5.86743 2.50012 6.00004C2.50012 6.13265 2.5528 6.25983 2.64657 6.35359C2.74034 6.44736 2.86751 6.50004 3.00012 6.50004L10.5941 6.48454L8.43262 8.64654C8.38487 8.69266 8.34678 8.74784 8.32057 8.80884C8.29437 8.86984 8.28057 8.93545 8.28 9.00184C8.27942 9.06823 8.29207 9.13407 8.31721 9.19552C8.34235 9.25697 8.37948 9.31279 8.42643 9.35974C8.47337 9.40668 8.5292 9.44381 8.59065 9.46895C8.65209 9.49409 8.71793 9.50674 8.78432 9.50617C8.85071 9.50559 8.91632 9.4918 8.97733 9.46559C9.03833 9.43939 9.0935 9.4013 9.13962 9.35354L11.4326 7.06054C11.714 6.77938 11.8721 6.39799 11.8723 6.00025C11.8725 5.6025 11.7147 5.22096 11.4336 4.93954Z" fill="#111111"/>
</g>
<defs>
<clipPath id="clip0_116_1371">
<rect width="12" height="12" fill="white"/>
</clipPath>
</defs>
</svg>
